HIERARCHY
ROOT Hips
{
	OFFSET 0.000000 0.000000 0.000000 
	CHANNELS 6 Xposition Yposition Zposition Yrotation Zrotation Xrotation 
	JOINT Lumbar
	{
		OFFSET 0.000000 0.000000 0.000000 
		CHANNELS 3 Zrotation Xrotation Yrotation
		JOINT Neck
		{
			OFFSET 0.000000 0.445665 0.000000 
			CHANNELS 3 Zrotation Xrotation Yrotation
			End Site
			{
				OFFSET 0.000000 0.227535 0.000000 
			}
		}
		JOINT RightShoulder
		{
			OFFSET 0.019635 0.377685 0.194865 
			CHANNELS 3 Zrotation Xrotation Yrotation
			JOINT RightElbow
			{
				OFFSET 0.000000 -0.243375 0.000000 
				CHANNELS 2 Zrotation Yrotation
				JOINT RightWrist
				{
					OFFSET 0.000000 -0.264825 0.000000 
					CHANNELS 2 Zrotation Xrotation
					End Site
					{
						OFFSET 0.006600 -0.176220 0.000990 
					}
				}
			}
		}
		JOINT LeftShoulder
		{
			OFFSET 0.019635 0.377685 -0.194865 
			CHANNELS 3 Zrotation Xrotation Yrotation
			JOINT LeftElbow
			{
				OFFSET 0.000000 -0.243375 0.000000 
				CHANNELS 2 Zrotation Yrotation
				JOINT LeftWrist
				{
					OFFSET 0.000000 -0.264825 0.000000 
					CHANNELS 2 Zrotation Xrotation
					End Site
					{
						OFFSET 0.006600 -0.176220 -0.000990 
					}
				}
			}
		}
	}
	JOINT RightHip
	{
		OFFSET 0.052140 -0.069960 0.075570 
		CHANNELS 3 Zrotation Xrotation Yrotation
		JOINT RightKnee
		{
			OFFSET 0.000000 -0.402270 0.000000 
			CHANNELS 1 Zrotation
			JOINT RightAnkle
			{
				OFFSET 0.000000 -0.404085 0.000000 
				CHANNELS 3 Zrotation Xrotation Yrotation
				End Site
				{
					OFFSET 0.204105 -0.089430 0.008415 
				}
			}
		}
	}
	JOINT LeftHip
	{
		OFFSET 0.052140 -0.069960 -0.075570 
		CHANNELS 3 Zrotation Xrotation Yrotation
		JOINT LeftKnee
		{
			OFFSET 0.000000 -0.402270 0.000000 
			CHANNELS 1 Zrotation
			JOINT LeftAnkle
			{
				OFFSET 0.000000 -0.404085 0.000000 
				CHANNELS 3 Zrotation Xrotation Yrotation
				End Site
				{
					OFFSET 0.204105 -0.089430 -0.008415 
				}
			}
		}
	}
}
MOTION
Frames: 23
Frame Time: 0.02
-0 0.95578 -0 101.44921 0 -7.89714 -2.25487 2.88797 -6.71272 -45.08095 3.12707 5.34847 39.88697 -20.12082 12.80518 14.04738 87.45358 -3.02794 -6.23011 42.97987 7.41359 -8.7357 8.91929 -83.93796 -3.5293 2.93623 4.54243 6.76479 14.51447 -10.11942 -18.47761 -0.88987 -6.96887 -8.02778 1.89117 28.45396 -2.43678 -3.35888 2.9158 9.06093
0.00129 0.95577 0.00183 101.32309 0 -7.85924 -2.72634 2.6978 -6.73306 -44.72884 3.2663 5.42324 39.35525 -20.20074 12.96017 14.06867 87.25734 -3.02391 -6.24845 42.54163 7.33468 -8.29996 8.77764 -83.69896 -3.4787 2.87822 4.54048 6.83812 13.32914 -9.85583 -18.51742 -0.91859 -7.11928 -8.32805 1.67003 28.19901 -1.54931 -3.81759 2.96796 9.40267
0.00258 0.95577 0.00365 101.19741 0 -7.82128 -3.19801 2.50798 -6.75371 -44.37769 3.40476 5.49772 38.82516 -20.28056 13.11658 14.08958 87.06295 -3.01978 -6.26641 42.10641 7.25613 -7.86886 8.63687 -83.46092 -3.4285 2.82085 4.53977 6.91134 12.15244 -9.59565 -18.55672 -0.94688 -7.26892 -8.62458 1.45134 27.94742 -0.67096 -4.27181 3.01924 9.74026
0.00388 0.95576 0.00547 101.07124 0 -7.78287 -3.67394 2.31818 -6.77674 -44.02226 3.54039 5.56981 38.29357 -20.35765 13.27819 14.10931 86.87623 -3.01573 -6.28314 41.67131 7.18053 -7.44705 8.49869 -83.22632 -3.37953 2.76528 4.54367 6.98449 10.9973 -9.34533 -18.5949 -0.97357 -7.41617 -8.9062 1.24118 27.71122 0.1733 -4.70881 3.06723 10.06108
0.00511 0.95574 0.00733 100.94644 0 -7.74703 -4.1259 2.12883 -6.78829 -43.68389 3.68968 5.65219 37.76654 -20.44542 13.40987 14.13545 86.65155 -3.01189 -6.30652 41.22632 7.09207 -6.97 8.34732 -82.97582 -3.32418 2.69996 4.52278 7.05761 9.72629 -9.04135 -18.63968 -1.00855 -7.57515 -9.2633 0.98688 27.39885 1.19068 -5.23257 3.13229 10.46655
0.00651 0.95575 0.0091 100.81968 0 -7.70569 -4.62906 1.93837 -6.82333 -43.31358 3.81085 5.71432 37.23269 -20.51311 13.60636 14.14791 86.50556 -3.00717 -6.31571 40.80896 7.02899 -6.61433 8.22364 -82.75761 -3.28225 2.65547 4.5546 7.13099 8.70272 -8.85215 -18.67001 -1.02609 -7.70978 -9.46278 0.82545 27.24422 1.84596 -5.57534 3.16144 10.69541
0.00835 0.95586 0.01065 100.67735 0 -7.64795 -5.28513 1.74231 -6.93332 -42.80896 3.84703 5.70676 36.64468 -20.50312 13.97997 14.122 86.59623 -3.00307 -6.28519 40.40584 7.05302 -6.56213 8.17938 -82.63946 -3.27879 2.66832 4.73565 7.20482 8.34898 -8.97765 -18.66302 -0.99317 -7.77318 -9.19592 0.93198 27.568 1.43835 -5.3831 3.08625 10.40058
0.01037 0.95601 0.01208 100.53509 0 -7.5847 -5.9915 1.54545 -7.06538 -42.27973 3.85617 5.68117 36.05546 -20.47683 14.4195 14.08218 86.76296 -2.99732 -6.24032 40.04134 7.09972 -6.6383 8.16276 -82.55201 -3.28867 2.70237 4.96914 7.27891 8.24656 -9.21933 -18.64066 -0.94302 -7.8127 -8.77504 1.13046 28.04357 0.67545 -5.01398 2.97556 9.93336
0.01232 0.95614 0.01353 100.3988 0 -7.52484 -6.66821 1.35026 -7.18087 -41.7915 3.88255 5.67288 35.48927 -20.4726 14.83093 14.04925 86.88235 -2.99054 -6.20244 39.69939 7.12484 -6.67626 8.1312 -82.44301 -3.29144 2.72671 5.17693 7.35335 8.0382 -9.40986 -18.62404 -0.90227 -7.86594 -8.44486 1.27929 28.42218 0.11658 -4.74898 2.88451 9.56854
0.01425 0.95627 0.01516 100.23578 0 -7.46175 -7.37357 1.14926 -7.32369 -41.17868 3.88818 5.62655 34.82903 -20.40695 15.2356 14.0146 87.05538 -2.99198 -6.16297 39.18926 7.19695 -6.62905 8.10859 -82.36517 -3.29837 2.75088 5.39392 7.42638 7.79725 -9.59452 -18.61392 -0.85504 -7.90747 -8.02858 1.46053 28.91857 -0.61843 -4.38554 2.77908 9.10385
0.01624 0.9564 0.01638 100.1302 0 -7.40346 -8.03116 0.9606 -7.41513 -40.81804 3.93043 5.65467 34.36344 -20.46482 15.66861 13.97941 87.13512 -2.97504 -6.12293 39.03731 7.17731 -6.78999 8.07527 -82.2309 -3.30011 2.78105 5.60254 7.50169 7.68108 -9.81764 -18.58504 -0.81703 -7.96721 -7.75346 1.59705 29.20607 -1.07538 -4.18294 2.69465 8.80418
0.01832 0.95654 0.01659 100.1686 0 -7.36514 -8.545 0.80298 -7.35694 -41.1714 4.08151 5.8964 34.44352 -20.8714 16.17608 13.95278 86.93539 -2.91539 -6.08878 39.87441 6.89357 -7.49008 7.99424 -81.92347 -3.2821 2.81774 5.78899 7.58941 7.87121 -10.12968 -18.52153 -0.81046 -8.08725 -7.91946 1.57989 28.87689 -0.63975 -4.4864 2.6816 9.01916
0.02046 0.95667 0.01639 100.26775 0 -7.33091 -9.00874 0.65876 -7.2469 -41.77671 4.26979 6.2125 34.71797 -21.40142 16.70757 13.92464 86.63978 -2.83601 -6.05374 41.06792 6.51834 -8.39458 7.90393 -81.56036 -3.25901 2.86083 5.96228 7.67833 8.17364 -10.474 -18.43715 -0.81359 -8.2256 -8.2304 1.51614 28.33308 0.08087 -4.95425 2.69015 9.40262
0.02258 0.95679 0.01632 100.34839 0 -7.29122 -9.49542 0.51007 -7.16194 -42.25969 4.44087 6.49279 34.89838 -21.87353 17.21993 13.8931 86.39017 -2.76048 -6.01661 42.0932 6.18761 -9.21004 7.82486 -81.22871 -3.23942 2.90398 6.13304 7.76252 8.40974 -10.79666 -18.35352 -0.81097 -8.35285 -8.4659 1.47864 27.88898 0.64623 -5.33474 2.68556 9.6984
0.02465 0.95695 0.01649 100.38973 0 -7.2663 -9.98404 0.35304 -7.07067 -42.77694 4.61392 6.78298 35.1032 -22.35586 17.76905 13.87919 86.1329 -2.70596 -5.98979 43.15003 5.84268 -10.01951 7.71567 -80.87066 -3.21445 2.9346 6.34308 7.86402 8.72024 -11.15425 -18.30628 -0.81287 -8.49118 -8.73596 1.4224 27.43979 1.308 -5.76288 2.69324 10.03667
0.02683 0.95704 0.01605 100.5285 0 -7.21196 -10.45492 0.21842 -6.98077 -43.28036 4.78994 7.06789 35.30289 -22.84247 18.2467 13.82729 85.86789 -2.60371 -5.94114 44.22052 5.50862 -10.88105 7.66843 -80.55586 -3.20033 2.99348 6.46561 7.93018 8.89783 -11.44352 -18.17844 -0.80858 -8.61084 -8.97103 1.3936 26.9498 1.84113 -6.13259 2.68162 10.32673
0.02927 0.95693 0.01421 100.91204 0 -7.07274 -10.89786 0.12671 -6.90006 -43.7066 4.98397 7.34231 35.44523 -23.34521 18.51865 13.68024 85.60424 -2.36879 -5.83528 45.28202 5.19796 -11.89961 7.77902 -80.35778 -3.20855 3.12087 6.36534 7.89522 8.69292 -11.55022 -17.8336 -0.77829 -8.67881 -9.06903 1.44618 26.38472 1.95026 -6.30539 2.60593 10.46068
0.0318 0.95674 0.01175 101.39359 0 -6.90427 -11.32224 0.06001 -6.82361 -44.10631 5.17675 7.60499 35.57518 -23.84204 18.71809 13.49339 85.33607 -2.08785 -5.70699 46.337 4.90631 -12.95198 7.95481 -80.20795 -3.22949 3.27772 6.17415 7.8255 8.34814 -11.58384 -17.40843 -0.7424 -8.72803 -9.12792 1.52891 25.78748 1.92037 -6.41327 2.5113 10.53823
0.0343 0.95659 0.00948 101.83607 0 -6.75094 -11.74978 -0.00782 -6.75011 -44.50323 5.35732 7.8583 35.70761 -24.31846 18.95183 13.31853 85.0698 -1.83144 -5.58718 47.36847 4.6254 -13.94557 8.11108 -80.04667 -3.2503 3.42634 6.01428 7.77352 8.05667 -11.64113 -17.01968 -0.7139 -8.78137 -9.20949 1.6008 25.21464 1.95698 -6.54929 2.42909 10.62994
0.03677 0.95643 0.00758 102.2564 0 -6.59 -12.20009 -0.11831 -6.65489 -44.97088 5.59138 8.17546 35.85898 -24.89495 19.18023 13.16897 84.80002 -1.55808 -5.47465 48.52498 4.26115 -15.1259 8.2253 -79.83956 -3.24693 3.55392 5.89676 7.71239 7.80739 -11.73987 -16.63019 -0.66672 -8.84831 -9.2777 1.65784 24.59526 1.99477 -6.69857 2.33141 10.77396
0.03932 0.95626 0.00475 102.7468 0 -6.43784 -12.59645 -0.13428 -6.60571 -45.28254 5.71541 8.3569 35.96685 -25.26221 19.40287 12.95778 84.53879 -1.3106 -5.34156 49.41382 4.0741 -15.92737 8.44151 -79.73969 -3.2972 3.7316 5.6689 7.66329 7.442 -11.73451 -16.22391 -0.65517 -8.88924 -9.3596 1.75505 24.06523 1.98652 -6.80032 2.26132 10.79581
0.04207 0.95604 -0.0004 103.39461 0 -6.31745 -12.87167 0.10552 -6.69111 -45.16053 5.51693 8.15702 35.94476 -25.03329 19.62008 12.58212 84.29331 -1.13512 -5.15815 49.57118 4.39058 -15.63222 8.93282 -79.92764 -3.48999 4.04526 5.16451 7.64503 6.72921 -11.45922 -15.78666 -0.75986 -8.79886 -9.51208 1.94307 23.81152 1.93997 -6.8065 2.27086 10.47486
0.0449 0.95579 -0.00649 104.11185 0 -6.20674 -13.08885 0.43925 -6.82179 -44.88271 5.21094 7.82234 35.88091 -24.59705 19.83434 12.14672 84.05863 -0.98917 -4.95477 49.45589 4.88198 -14.96136 9.52221 -80.22133 -3.73629 4.40689 4.55124 7.64188 5.91198 -11.08173 -15.33599 -0.89816 -8.69186 -9.67334 2.17299 23.64415 1.83795 -6.76251 2.30902 10.03678
